<svg width="311" height="79" viewBox="0 0 311 79" fill="none" xmlns="http://www.w3.org/2000/svg">
<path d="M289 4H307L255 74H237L289 4Z" fill="white"/>
<path d="M257.251 3.57812L310.251 73.5781H288.251L235.251 3.57812H257.251ZM243.251 7.57812L290.251 69.5781H302.251L255.251 7.57812H243.251Z" fill="white"/>
<path d="M235.312 52.9123H196.08C196.668 57.4893 198.466 61.3472 201.474 64.4857C204.547 67.5589 208.307 69.0955 212.753 69.0955C215.826 69.0955 218.736 68.2781 221.482 66.6435C224.294 65.0088 226.615 62.8838 228.446 60.2683L232.369 63.7011C229.95 67.4281 226.844 70.3378 223.052 72.4302C219.325 74.4572 215.238 75.4707 210.792 75.4707C203.141 75.4707 196.57 73.0187 191.078 68.1147C185.585 63.1453 182.839 56.9336 182.839 49.4795C182.839 42.0254 185.389 35.8464 190.489 30.9424C195.589 25.973 201.866 23.4883 209.32 23.4883C216.644 23.4883 222.888 25.8749 228.054 30.6481C233.219 35.4213 235.802 41.3715 235.802 48.4987C235.802 49.2833 235.769 49.8391 235.704 50.166C235.639 50.5584 235.606 51.0488 235.606 51.6372C235.541 51.9642 235.442 52.3892 235.312 52.9123ZM196.08 45.5563H222.561C222.561 42.3523 221.842 39.4426 220.404 36.8272C219.03 34.2117 217.003 32.2501 214.323 30.9424C212.557 30.2231 210.89 29.8635 209.32 29.8635C205.397 29.8635 202.193 31.4655 199.709 34.6694C197.289 37.8733 196.08 41.5023 196.08 45.5563Z" fill="white"/>
<path d="M161.797 3.38281H174.548V74.0004H161.797V3.38281Z" fill="white"/>
<path d="M137.324 3.38281H150.074V74.0004H137.324V3.38281Z" fill="white"/>
<path d="M128.998 49.4795C128.998 56.9989 126.285 63.2107 120.857 68.1147C115.496 73.0187 109.055 75.4707 101.536 75.4707C94.0816 75.4707 87.641 72.986 82.2139 68.0166C76.7868 62.9818 74.0732 56.8028 74.0732 49.4795C74.0732 42.0254 76.7868 35.8464 82.2139 30.9424C87.641 25.973 94.0816 23.4883 101.536 23.4883C109.12 23.4883 115.594 25.973 120.955 30.9424C126.317 35.8464 128.998 42.0254 128.998 49.4795ZM90.943 35.9444C88.5237 39.9984 87.314 44.5101 87.314 49.4795C87.314 54.4489 88.5237 58.9605 90.943 63.0145C93.4277 67.0685 96.9586 69.0955 101.536 69.0955C106.178 69.0955 109.709 67.0685 112.128 63.0145C114.548 58.9605 115.757 54.4489 115.757 49.4795C115.757 44.5101 114.548 39.9984 112.128 35.9444C109.709 31.8905 106.178 29.8635 101.536 29.8635C96.8932 29.8635 93.3623 31.8905 90.943 35.9444Z" fill="white"/>
<path d="M66.2041 56.346L71.1081 60.7596C67.708 65.6636 63.3598 69.4234 58.0635 72.0388C52.8326 74.6543 47.2093 75.962 41.1937 75.962C30.7973 75.962 21.9701 72.4965 14.7121 65.5655C7.51961 58.5692 3.92334 49.9381 3.92334 39.6724C3.92334 29.3413 7.5523 20.7103 14.8102 13.7793C22.1335 6.84831 30.928 3.38281 41.1937 3.38281C46.9478 3.38281 52.2768 4.62516 57.1808 7.10985C62.0848 9.52916 66.2368 13.0273 69.6369 17.6044L65.2233 22.018C62.4771 18.6833 59.1751 16.0678 55.3173 14.1716C51.4595 12.21 47.4055 11.2292 43.1553 11.2292C35.7013 11.2292 29.7511 14.0735 25.3048 19.7622C20.8585 25.4508 18.6353 32.0876 18.6353 39.6724C18.6353 47.3227 20.8585 53.9921 25.3048 59.6807C29.8165 65.304 35.7667 68.1156 43.1553 68.1156C47.667 68.1156 51.9499 67.0694 56.0038 64.9771C60.1232 62.8847 63.5233 60.0077 66.2041 56.346Z" fill="white"/>
</svg>
